<svg width="18" height="23" viewBox="0 0 18 23" fill="none" xmlns="http://www.w3.org/2000/svg">
<path fill-rule="evenodd" clip-rule="evenodd" d="M13.2715 9.91016C13.2715 10.971 12.8501 11.9884 12.0999 12.7386C11.3498 13.4887 10.3324 13.9102 9.27148 13.9102C8.21062 13.9102 7.1932 13.4887 6.44306 12.7386C5.69291 11.9884 5.27148 10.971 5.27148 9.91016C5.27148 8.84929 5.69291 7.83187 6.44306 7.08173C7.1932 6.33158 8.21062 5.91016 9.27148 5.91016C10.3324 5.91016 11.3498 6.33158 12.0999 7.08173C12.8501 7.83187 13.2715 8.84929 13.2715 9.91016ZM11.2715 9.91016C11.2715 10.4406 11.0608 10.9493 10.6857 11.3244C10.3106 11.6994 9.80192 11.9102 9.27148 11.9102C8.74105 11.9102 8.23234 11.6994 7.85727 11.3244C7.4822 10.9493 7.27148 10.4406 7.27148 9.91016C7.27148 9.37972 7.4822 8.87102 7.85727 8.49594C8.23234 8.12087 8.74105 7.91016 9.27148 7.91016C9.80192 7.91016 10.3106 8.12087 10.6857 8.49594C11.0608 8.87102 11.2715 9.37972 11.2715 9.91016Z" fill="#232222"/>
<path fill-rule="evenodd" clip-rule="evenodd" d="M2.794 16.1568C1.50484 14.9293 0.608609 13.3472 0.218639 11.6104C-0.17133 9.87359 -0.0375212 8.06016 0.603146 6.39941C1.24381 4.73867 2.36256 3.3052 3.81792 2.28027C5.27328 1.25535 6.99988 0.685012 8.77938 0.641377C10.5589 0.597743 12.3114 1.08277 13.8152 2.03513C15.3191 2.9875 16.5067 4.36441 17.228 5.99176C17.9493 7.61911 18.1718 9.42381 17.8675 11.1776C17.5631 12.9315 16.7455 14.5556 15.518 15.8448L9.31201 22.3628L2.794 16.1568ZM14.07 14.4658L9.243 19.5358L4.173 14.7088C3.17037 13.7541 2.47334 12.5236 2.17005 11.1727C1.86676 9.82193 1.97084 8.41152 2.46912 7.11986C2.9674 5.8282 3.8375 4.71329 4.96941 3.91613C6.10131 3.11897 7.44418 2.67535 8.8282 2.64137C10.2122 2.60738 11.5752 2.98457 12.7449 3.72522C13.9146 4.46587 14.8383 5.53673 15.3994 6.80238C15.9605 8.06804 16.1336 9.47164 15.897 10.8357C15.6604 12.1998 15.0246 13.463 14.07 14.4658Z" fill="#232222"/>
</svg>
