<svg width="38" height="38" viewBox="0 0 38 38" fill="none" xmlns="http://www.w3.org/2000/svg">
<path d="M36.5015 27.6102V32.8602C36.5034 33.3475 36.4036 33.83 36.2084 34.2765C36.0131 34.7231 35.7267 35.124 35.3676 35.4534C35.0085 35.7829 34.5845 36.0338 34.1228 36.1899C33.6611 36.346 33.1719 36.404 32.6865 36.3602C27.3014 35.775 22.1287 33.9349 17.584 30.9877C13.3557 28.3008 9.77081 24.716 7.08397 20.4877C4.12643 15.9223 2.2859 10.7244 1.71147 5.31517C1.66774 4.83124 1.72525 4.3435 1.88035 3.88301C2.03544 3.42252 2.28472 2.99938 2.61231 2.64051C2.9399 2.28164 3.33863 1.99491 3.7831 1.79858C4.22758 1.60226 4.70807 1.50063 5.19397 1.50017H10.444C11.2933 1.49181 12.1166 1.79256 12.7606 2.34635C13.4045 2.90015 13.8251 3.6692 13.944 4.51017C14.1656 6.19029 14.5765 7.83994 15.169 9.42767C15.4044 10.054 15.4554 10.7348 15.3158 11.3892C15.1762 12.0437 14.852 12.6444 14.3815 13.1202L12.159 15.3427C14.6502 19.7239 18.2778 23.3514 22.659 25.8427L24.8815 23.6202C25.3573 23.1497 25.958 22.8254 26.6124 22.6858C27.2669 22.5463 27.9476 22.5972 28.574 22.8327C30.1617 23.4251 31.8114 23.8361 33.4915 24.0577C34.3416 24.1776 35.1179 24.6058 35.6729 25.2608C36.2279 25.9158 36.5228 26.7519 36.5015 27.6102Z" stroke="#4CAF50" stroke-width="2" stroke-linecap="round" stroke-linejoin="round"/>
</svg>
