<svg width="42" height="42" viewBox="0 0 42 42" fill="none" xmlns="http://www.w3.org/2000/svg">
<path d="M14.4371 22.1317L29.1863 35.1091C29.3567 35.26 29.5635 35.3639 29.7863 35.4108C30.0091 35.4576 30.2402 35.4457 30.457 35.3762C30.6738 35.3067 30.8687 35.182 31.0228 35.0143C31.1768 34.8467 31.2846 34.6419 31.3355 34.42L37.5043 7.48093C37.556 7.24893 37.5437 7.00724 37.4688 6.78166C37.3939 6.55607 37.2591 6.35507 37.0789 6.2001C36.8987 6.04513 36.6797 5.94202 36.4455 5.90177C36.2112 5.86152 35.9704 5.88564 35.7488 5.97156L5.46284 17.8661C4.24878 18.3419 4.41284 20.1137 5.69253 20.3762L14.4371 22.1317Z" stroke="#4CAF50" stroke-width="2" stroke-linecap="round" stroke-linejoin="round"/>
<path d="M14.4375 22.1312L36.7664 6.00391" stroke="#4CAF50" stroke-width="2" stroke-linecap="round" stroke-linejoin="round"/>
<path d="M21.8039 28.6133L16.6852 33.732C16.5025 33.9175 16.2689 34.0444 16.014 34.0968C15.759 34.1491 15.4943 34.1245 15.2534 34.026C15.0125 33.9275 14.8063 33.7597 14.661 33.5437C14.5157 33.3278 14.4379 33.0735 14.4375 32.8133V22.1328" stroke="#4CAF50" stroke-width="2" stroke-linecap="round" stroke-linejoin="round"/>
</svg>
