<svg width="42" height="42" viewBox="0 0 42 42" fill="none" xmlns="http://www.w3.org/2000/svg">
<path d="M7.44888 29.0391C5.49471 25.7421 4.81117 21.8452 5.52657 18.0799C6.24198 14.3147 8.30713 10.94 11.3343 8.58954C14.3616 6.23903 18.1426 5.07431 21.9677 5.31403C25.7928 5.55375 29.3989 7.18142 32.109 9.89149C34.819 12.6015 36.4467 16.2076 36.6864 20.0327C36.9261 23.8578 35.7614 27.6389 33.4109 30.6661C31.0604 33.6933 27.6858 35.7585 23.9205 36.4739C20.1553 37.1893 16.2584 36.5057 12.9614 34.5516V34.5516L7.51451 36.0938C7.29134 36.159 7.05473 36.1631 6.82947 36.1054C6.60422 36.0478 6.39861 35.9307 6.2342 35.7663C6.06979 35.6018 5.95263 35.3962 5.89501 35.171C5.83739 34.9457 5.84142 34.7091 5.90669 34.4859L7.44888 29.0391Z" stroke="#4CAF50" stroke-width="2" stroke-linecap="round" stroke-linejoin="round"/>
<path d="M24.9539 30.1875C23.227 30.1919 21.5162 29.8549 19.9198 29.196C18.3235 28.5371 16.8731 27.5693 15.6519 26.3482C14.4308 25.127 13.4629 23.6766 12.8041 22.0802C12.1452 20.4839 11.8082 18.7731 11.8125 17.0461C11.8169 15.8306 12.3028 14.6664 13.1638 13.8085C14.0248 12.9505 15.1908 12.4688 16.4063 12.4688V12.4688C16.6068 12.4672 16.8041 12.5197 16.9773 12.6207C17.1506 12.7218 17.2933 12.8677 17.3907 13.043L19.3102 16.3899C19.4243 16.5933 19.4829 16.8233 19.48 17.0565C19.4772 17.2898 19.4129 17.5182 19.2938 17.7188L17.7516 20.2946C18.5415 22.0518 19.9482 23.4585 21.7055 24.2485L24.2813 22.7063C24.4819 22.5871 24.7103 22.5229 24.9435 22.52C25.1768 22.5171 25.4067 22.5757 25.6102 22.6899L28.9571 24.6094C29.1324 24.7067 29.2783 24.8495 29.3794 25.0227C29.4804 25.196 29.5329 25.3932 29.5313 25.5938C29.527 26.808 29.0439 27.9714 28.1869 28.8315C27.3298 29.6916 26.1681 30.1789 24.9539 30.1875V30.1875Z" stroke="#4CAF50" stroke-width="2" stroke-linecap="round" stroke-linejoin="round"/>
</svg>
