<svg width="96" height="28" viewBox="0 0 96 28" fill="none" xmlns="http://www.w3.org/2000/svg">
<path d="M15.6154 0.259845C15.1416 0.0340962 14.7063 0.00901319 14.5783 0.00587779C10.3626 -0.128945 6.80309 2.10033 6.80309 2.10033C5.83319 2.7086 2.41774 4.91279 0.842862 9.08287C-1.321 14.805 0.778843 22.1167 6.02525 25.7131C13.9733 31.1593 25.3368 25.4654 25.9193 23.1734C26.1722 22.1763 25.7497 21.6872 25.7497 21.6872C25.2503 21.1103 24.1588 21.2859 23.7811 21.3329C23.7811 21.3329 20.292 21.6276 16.7293 19.668C16.406 19.4893 15.2025 18.7995 14.1397 17.4858C11.5501 14.2845 12.1551 10.3057 12.2159 9.94824C12.5745 7.82558 13.9605 4.34214 15.8747 2.92807C16.1019 2.7619 16.7901 2.28532 16.7805 1.65824C16.7741 1.05624 16.1275 0.507542 15.6154 0.262981V0.259845Z" fill="#4CAF50"/>
<path d="M34.73 23V4.8H37.33V20.738H47.184V23H34.73Z" fill="#232222"/>
<path d="M55.4238 23.156C54.2451 23.156 53.2051 22.9393 52.3038 22.506C51.4198 22.0727 50.7264 21.414 50.2238 20.53C49.7384 19.6287 49.4958 18.502 49.4958 17.15V9.22H51.9918V16.864C51.9918 18.216 52.3124 19.23 52.9538 19.906C53.6124 20.582 54.5311 20.92 55.7098 20.92C56.5764 20.92 57.3304 20.7467 57.9718 20.4C58.6131 20.036 59.1071 19.516 59.4538 18.84C59.8004 18.1467 59.9738 17.3147 59.9738 16.344V9.22H62.4698V23H60.1038V19.282L60.4938 20.27C60.0431 21.1887 59.3671 21.8993 58.4658 22.402C57.5644 22.9047 56.5504 23.156 55.4238 23.156Z" fill="#232222"/>
<path d="M74.5795 9.09C75.7061 9.09 76.6941 9.30667 77.5435 9.74C78.4101 10.1733 79.0861 10.832 79.5715 11.716C80.0568 12.6 80.2995 13.718 80.2995 15.07V23H77.8035V15.356C77.8035 14.0213 77.4741 13.016 76.8155 12.34C76.1741 11.664 75.2641 11.326 74.0855 11.326C73.2015 11.326 72.4301 11.4993 71.7715 11.846C71.1128 12.1927 70.6015 12.704 70.2375 13.38C69.8908 14.056 69.7175 14.8967 69.7175 15.902V23H67.2215V9.22H69.6135V12.938L69.2235 11.95C69.6741 11.0487 70.3675 10.3467 71.3035 9.844C72.2395 9.34133 73.3315 9.09 74.5795 9.09Z" fill="#232222"/>
<path d="M93.4727 23V20.088L93.3427 19.542V14.576C93.3427 13.5187 93.0307 12.704 92.4067 12.132C91.8001 11.5427 90.8814 11.248 89.6507 11.248C88.8361 11.248 88.0387 11.3867 87.2587 11.664C86.4787 11.924 85.8201 12.2793 85.2827 12.73L84.2427 10.858C84.9534 10.286 85.8027 9.85267 86.7907 9.558C87.7961 9.246 88.8447 9.09 89.9367 9.09C91.8261 9.09 93.2821 9.54933 94.3047 10.468C95.3274 11.3867 95.8387 12.7907 95.8387 14.68V23H93.4727ZM88.9487 23.156C87.9261 23.156 87.0247 22.9827 86.2447 22.636C85.4821 22.2893 84.8927 21.8127 84.4767 21.206C84.0607 20.582 83.8527 19.88 83.8527 19.1C83.8527 18.3547 84.0261 17.6787 84.3727 17.072C84.7367 16.4653 85.3174 15.98 86.1147 15.616C86.9294 15.252 88.0214 15.07 89.3907 15.07H93.7587V16.864H89.4947C88.2467 16.864 87.4061 17.072 86.9727 17.488C86.5394 17.904 86.3227 18.4067 86.3227 18.996C86.3227 19.672 86.5914 20.218 87.1287 20.634C87.6661 21.0327 88.4114 21.232 89.3647 21.232C90.3007 21.232 91.1154 21.024 91.8087 20.608C92.5194 20.192 93.0307 19.5853 93.3427 18.788L93.8367 20.504C93.5074 21.3187 92.9267 21.9687 92.0947 22.454C91.2627 22.922 90.2141 23.156 88.9487 23.156Z" fill="#232222"/>
</svg>
