<svg width="96" height="29" viewBox="0 0 96 29" fill="none" xmlns="http://www.w3.org/2000/svg">
<path d="M15.6154 0.759845C15.1416 0.534096 14.7063 0.509013 14.5783 0.505878C10.3626 0.371055 6.80309 2.60033 6.80309 2.60033C5.83319 3.2086 2.41774 5.41279 0.842862 9.58287C-1.321 15.305 0.778843 22.6167 6.02525 26.2131C13.9733 31.6593 25.3368 25.9654 25.9193 23.6734C26.1722 22.6763 25.7497 22.1872 25.7497 22.1872C25.2503 21.6103 24.1588 21.7859 23.7811 21.8329C23.7811 21.8329 20.292 22.1276 16.7293 20.168C16.406 19.9893 15.2025 19.2995 14.1397 17.9858C11.5501 14.7845 12.1551 10.8057 12.2159 10.4482C12.5745 8.32558 13.9605 4.84214 15.8747 3.42807C16.1019 3.2619 16.7901 2.78532 16.7805 2.15824C16.7741 1.55624 16.1275 1.00754 15.6154 0.762981V0.759845Z" fill="#4CAF50"/>
<path d="M34.73 23.5V5.3H37.33V21.238H47.184V23.5H34.73Z" fill="#232222"/>
<path d="M55.4238 23.656C54.2451 23.656 53.2051 23.4393 52.3038 23.006C51.4198 22.5727 50.7264 21.914 50.2238 21.03C49.7384 20.1287 49.4958 19.002 49.4958 17.65V9.72H51.9918V17.364C51.9918 18.716 52.3124 19.73 52.9538 20.406C53.6124 21.082 54.5311 21.42 55.7098 21.42C56.5764 21.42 57.3304 21.2467 57.9718 20.9C58.6131 20.536 59.1071 20.016 59.4538 19.34C59.8004 18.6467 59.9738 17.8147 59.9738 16.844V9.72H62.4698V23.5H60.1038V19.782L60.4938 20.77C60.0431 21.6887 59.3671 22.3993 58.4658 22.902C57.5644 23.4047 56.5504 23.656 55.4238 23.656Z" fill="#232222"/>
<path d="M74.5795 9.59C75.7061 9.59 76.6941 9.80667 77.5435 10.24C78.4101 10.6733 79.0861 11.332 79.5715 12.216C80.0568 13.1 80.2995 14.218 80.2995 15.57V23.5H77.8035V15.856C77.8035 14.5213 77.4741 13.516 76.8155 12.84C76.1741 12.164 75.2641 11.826 74.0855 11.826C73.2015 11.826 72.4301 11.9993 71.7715 12.346C71.1128 12.6927 70.6015 13.204 70.2375 13.88C69.8908 14.556 69.7175 15.3967 69.7175 16.402V23.5H67.2215V9.72H69.6135V13.438L69.2235 12.45C69.6741 11.5487 70.3675 10.8467 71.3035 10.344C72.2395 9.84133 73.3315 9.59 74.5795 9.59Z" fill="#232222"/>
<path d="M93.4727 23.5V20.588L93.3427 20.042V15.076C93.3427 14.0187 93.0307 13.204 92.4067 12.632C91.8001 12.0427 90.8814 11.748 89.6507 11.748C88.8361 11.748 88.0387 11.8867 87.2587 12.164C86.4787 12.424 85.8201 12.7793 85.2827 13.23L84.2427 11.358C84.9534 10.786 85.8027 10.3527 86.7907 10.058C87.7961 9.746 88.8447 9.59 89.9367 9.59C91.8261 9.59 93.2821 10.0493 94.3047 10.968C95.3274 11.8867 95.8387 13.2907 95.8387 15.18V23.5H93.4727ZM88.9487 23.656C87.9261 23.656 87.0247 23.4827 86.2447 23.136C85.4821 22.7893 84.8927 22.3127 84.4767 21.706C84.0607 21.082 83.8527 20.38 83.8527 19.6C83.8527 18.8547 84.0261 18.1787 84.3727 17.572C84.7367 16.9653 85.3174 16.48 86.1147 16.116C86.9294 15.752 88.0214 15.57 89.3907 15.57H93.7587V17.364H89.4947C88.2467 17.364 87.4061 17.572 86.9727 17.988C86.5394 18.404 86.3227 18.9067 86.3227 19.496C86.3227 20.172 86.5914 20.718 87.1287 21.134C87.6661 21.5327 88.4114 21.732 89.3647 21.732C90.3007 21.732 91.1154 21.524 91.8087 21.108C92.5194 20.692 93.0307 20.0853 93.3427 19.288L93.8367 21.004C93.5074 21.8187 92.9267 22.4687 92.0947 22.954C91.2627 23.422 90.2141 23.656 88.9487 23.656Z" fill="#232222"/>
</svg>
